<svg xmlns="http://www.w3.org/2000/svg" viewBox="0 0 157 140"><path fill="#4287f5" fill-rule="evenodd" d="M72.4 72.6c2.3-5.3-4.5-13.4-15.2-18.2-10.7-4.8-21.4-4.4-23.7.8-2.4 5.2 4.5 13.4 15.2 18.2 10.7 4.8 21.3 4.4 23.7-.8zm45.7 18h4.8c2.3 0 3.7 1.9 3.3 4.1-3.5 16.5-23.3 32-47 32-23.8 0-43.6-15.5-47-32-.6-2.2 1-4 3.2-4h5c2.1 7.8 4.5 12.7 6.9 14.6 1.8 1.4 3.4.7 3.7-1.6.5-4 1.5-8.4 3.2-13H104c1.8 4.6 3 9.1 3.4 13.5.3 2.2 2 3 3.7 1.5 2.5-2 4.9-7 7-15zM18.7 50.2L1.8 10.4c-3.6-8.5.2-12.1 8.5-8.1l35.3 16.9a64.4 64.4 0 0 1 66 0l34.7-17c8.2-4 12-.5 8.5 8l-16.4 39.7a64.8 64.8 0 1 1-119.6.2zm64.7 22.5c-2.4-5.3 4.4-13.4 15.2-18.2 10.7-4.8 21.3-4.4 23.6.8 2.4 5.2-4.4 13.4-15.1 18.2-10.8 4.8-21.4 4.4-23.7-.8z"/></svg>